<svg width="1440" height="151" viewBox="0 0 1440 151" fill="none" xmlns="http://www.w3.org/2000/svg">
<g clip-path="url(#clip0)">
<path opacity="0.8" fill-rule="evenodd" clip-rule="evenodd" d="M1438 101.019L1438 149.392C1438 145.062 1437.72 140.737 1437.16 136.443C1435.56 124.227 1431.83 112.816 1426.38 102.537L1438 101.019ZM46 7.83081L917.588 98.7269C930.35 100.058 943.219 99.956 955.955 98.4245L957.69 98.2068L1325.05 50.234C1367.17 44.7334 1406.59 66.2984 1425.8 101.467L1426.38 102.537L1159.58 137.379L1157.85 137.596C1145.56 139.073 1133.16 139.221 1120.85 138.036L1119.48 137.899L46 25.9478V7.83081Z" fill="url(#paint0_linear)"/>
<path opacity="0.6" fill-rule="evenodd" clip-rule="evenodd" d="M191 -6.04224C194.461 -6.04224 197.919 -5.86261 201.361 -5.50408L1198.48 98.3623C1206.63 99.2117 1214.85 99.1467 1222.99 98.1692L1224.1 98.0303L1440 69.8688V77L1133.1 117.03L1131.99 117.169C1124.24 118.1 1116.41 118.203 1108.64 117.477L1107.48 117.362L129.063 15.4428C146.095 1.98835 167.61 -6.04224 191 -6.04224ZM91 11.4778L129.063 15.4428C106.111 33.5734 91.2984 61.5533 91.0045 93.0037L91 93.9578V11.4778Z" fill="url(#paint1_linear)"/>
<path fill-rule="evenodd" clip-rule="evenodd" d="M1133.1 116.03L1440 76V151L0 151L0 1L1107.48 116.362C1115.63 117.212 1123.85 117.147 1131.99 116.169L1133.1 116.03Z" fill="white"/>
<path opacity="0.8" fill-rule="evenodd" clip-rule="evenodd" d="M1440 76V106.321L1311.18 123.11L1310.11 123.244C1302.64 124.141 1295.1 124.24 1287.61 123.541L1286.49 123.43L1169.02 111.203L1440 76Z" fill="url(#paint2_linear)"/>
<path opacity="0.8" fill-rule="evenodd" clip-rule="evenodd" d="M1440 76V89.843L1380.67 97.5921L1380.18 97.6534C1376.86 98.0518 1373.52 98.1069 1370.2 97.818L1369.37 97.7386L1315.85 92.157L1440 76Z" fill="url(#paint3_linear)"/>
<path opacity="0.5" fill-rule="evenodd" clip-rule="evenodd" d="M0 1L1107.48 116.362C1115.63 117.212 1123.85 117.147 1131.99 116.169L1133.1 116.03L1333 89.956V90L1026.1 130.03L1024.99 130.169C1017.24 131.1 1009.41 131.203 1001.64 130.477L1000.48 130.362L0 26.146L0 1Z" fill="url(#paint4_linear)"/>
<path opacity="0.4" fill-rule="evenodd" clip-rule="evenodd" d="M6.10352e-05 0.5V58.787L311.523 91.2752L314.113 91.5346C332.499 93.3004 351.071 93.471 369.505 92.0431L371.348 91.895L653.435 68.4L6.10352e-05 0.5Z" fill="url(#paint5_linear)"/>
<path opacity="0.6" fill-rule="evenodd" clip-rule="evenodd" d="M-1.52588e-05 26.16V38.836L71.1874 46.2692L71.7735 46.3279C75.7433 46.7096 79.7513 46.7624 83.7338 46.4857L84.7289 46.4096L146.032 41.297L-1.52588e-05 26.16Z" fill="url(#paint6_linear)"/>
</g>
<defs>
<linearGradient id="paint0_linear" x1="1094.85" y1="79.3435" x2="1132.47" y2="23.6813" gradientUnits="userSpaceOnUse">
<stop stop-color="#8C4AF6" stop-opacity="0.796602"/>
<stop offset="1" stop-color="#6B30F2" stop-opacity="0"/>
</linearGradient>
<linearGradient id="paint1_linear" x1="350.986" y1="54.7907" x2="888.317" y2="132.976" gradientUnits="userSpaceOnUse">
<stop stop-color="#F74F4D" stop-opacity="0"/>
<stop offset="1" stop-color="#007BBF"/>
</linearGradient>
<linearGradient id="paint2_linear" x1="1385.74" y1="96.951" x2="1399.93" y2="122.372" gradientUnits="userSpaceOnUse">
<stop stop-color="#A45EFA" stop-opacity="0"/>
<stop offset="1" stop-color="#6B30F2" stop-opacity="0.497159"/>
</linearGradient>
<linearGradient id="paint3_linear" x1="1374.37" y1="87" x2="1438.26" y2="76.2911" gradientUnits="userSpaceOnUse">
<stop stop-color="#A45EFA" stop-opacity="0"/>
<stop offset="1" stop-color="#6B30F2" stop-opacity="0.497159"/>
</linearGradient>
<linearGradient id="paint4_linear" x1="815.316" y1="66.5947" x2="5.09679" y2="2.02375" gradientUnits="userSpaceOnUse">
<stop stop-color="#007BBF" stop-opacity="0"/>
<stop offset="1" stop-color="#007BBF"/>
</linearGradient>
<linearGradient id="paint5_linear" x1="354.74" y1="47.4744" x2="3.57299" y2="11.6888" gradientUnits="userSpaceOnUse">
<stop stop-color="#A45EFA" stop-opacity="0"/>
<stop offset="1" stop-color="#6B30F2" stop-opacity="0.811134"/>
</linearGradient>
<linearGradient id="paint6_linear" x1="79.2785" y1="36.5679" x2="0.78562" y2="28.6357" gradientUnits="userSpaceOnUse">
<stop stop-color="#A45EFA" stop-opacity="0"/>
<stop offset="1" stop-color="#6B30F2" stop-opacity="0.811134"/>
</linearGradient>
<clipPath id="clip0">
<rect width="1440" height="151" fill="white" transform="translate(1440 151) rotate(180)"/>
</clipPath>
</defs>
</svg>
