<svg width="465" height="348" viewBox="0 0 465 348" fill="none" xmlns="http://www.w3.org/2000/svg">
<g clip-path="url(#clip0)">
<path d="M4.18918 0C3.07854 0.00130509 2.01377 0.442667 1.22843 1.22726C0.443084 2.01186 0.00130493 3.07563 0 4.18522V343.815C0.00130493 344.924 0.443084 345.988 1.22843 346.773C2.01377 347.557 3.07854 347.999 4.18918 348H460.811C461.921 347.999 462.986 347.557 463.772 346.773C464.557 345.988 464.999 344.924 465 343.815V4.18522C464.999 3.07563 464.557 2.01186 463.772 1.22726C462.986 0.442667 461.921 0.00130509 460.811 0H4.18918Z" fill="#E6E6E6"/>
<path d="M13.4053 13.3926V334.608H451.594V13.3926H13.4053Z" fill="white"/>
<path d="M334.689 30.7617C334.446 30.7619 334.213 30.8584 334.041 31.0299C333.87 31.2014 333.773 31.4339 333.773 31.6765V105.914C333.773 106.157 333.87 106.389 334.041 106.561C334.213 106.732 334.446 106.829 334.689 106.829H434.499C434.742 106.829 434.974 106.732 435.146 106.561C435.318 106.389 435.414 106.157 435.414 105.914V31.6765C435.414 31.4339 435.318 31.2014 435.146 31.0299C434.974 30.8584 434.742 30.7619 434.499 30.7617H334.689Z" fill="#E6E6E6"/>
<path d="M336.703 33.689V103.901H432.484V33.689H336.703Z" fill="white"/>
<path d="M334.689 135.351C334.446 135.351 334.213 135.448 334.041 135.619C333.87 135.791 333.773 136.023 333.773 136.266V210.504C333.773 210.746 333.87 210.979 334.041 211.15C334.213 211.322 334.446 211.418 334.689 211.418H434.499C434.742 211.418 434.974 211.322 435.146 211.15C435.318 210.979 435.414 210.746 435.414 210.504V136.266C435.414 136.023 435.318 135.791 435.146 135.619C434.974 135.448 434.742 135.351 434.499 135.351H334.689Z" fill="#E6E6E6"/>
<path d="M336.703 138.279V208.491H432.484V138.279H336.703Z" fill="white"/>
<path d="M334.689 239.941C334.446 239.941 334.213 240.037 334.041 240.209C333.87 240.38 333.773 240.613 333.773 240.856V315.093C333.773 315.336 333.87 315.568 334.041 315.74C334.213 315.911 334.446 316.008 334.689 316.008H434.499C434.742 316.008 434.974 315.911 435.146 315.74C435.318 315.568 435.414 315.336 435.414 315.093V240.856C435.414 240.613 435.318 240.38 435.146 240.209C434.974 240.037 434.742 239.941 434.499 239.941H334.689Z" fill="#E6E6E6"/>
<path d="M336.703 242.868V313.081H432.484V242.868H336.703Z" fill="white"/>
<path d="M414.513 90.3654L395.428 77.0271H395.422L395.421 77.0294C394.772 74.9891 394.324 72.89 394.085 70.7625C395.877 69.1322 397.149 67.011 397.742 64.6635C397.819 64.709 397.892 64.759 397.963 64.8134C399.635 66.1495 402.811 51.9526 397.461 49.2803C397.461 49.2803 393.449 40.5952 385.759 42.5994C378.069 44.6037 373.722 47.6101 373.387 50.6165C373.053 53.6229 373.555 58.1325 373.555 58.1325C373.555 58.1325 374.018 54.7225 376.45 53.5172C375.247 54.8875 374.363 56.507 373.862 58.2594C373.361 60.0117 373.255 61.8533 373.552 63.6515C373.849 65.4496 374.541 67.1597 375.578 68.6587C376.616 70.1576 377.973 71.4081 379.553 72.32C378.972 74.3111 378.197 76.8919 377.545 78.7867H377.545L371.713 81.6844L359.009 89.7009C359.009 89.7009 353.996 96.044 352.321 103.396C352.192 103.974 352.056 104.553 351.915 105.131H419.685C417.425 98.308 414.513 90.3654 414.513 90.3654Z" fill="#E6E6E6"/>
<path d="M410.319 305.143C411.623 304.311 413.005 303.606 414.445 303.039L400.244 286.194L390.859 283.794C389.212 282.87 387.912 281.434 387.158 279.703L392.183 279.654L394.098 268.82C395.262 265.67 394.788 262.907 392.183 260.631C392.651 257.715 391.327 255.568 387.817 254.356C384.325 251.329 379.165 250.603 376.067 255.451C374.817 255.376 373.586 255.787 372.631 256.598C371.677 257.408 371.072 258.555 370.944 259.8C368.099 263.104 371.258 275.23 372.194 279.851L377.188 279.802C376.9 281.511 376.061 283.079 374.799 284.268L374.731 284.201L364.749 289.079L350.548 305.481C351.949 306.03 353.296 306.71 354.569 307.512L353.103 313.08H363.264L365.968 309.154H366.103C366.103 309.087 366.11 309.019 366.11 308.951L368.006 306.195C368.049 308.422 367.988 310.717 367.834 313.08H399.438C399.388 311.117 399.376 309.167 399.376 307.229L402.911 312.354C403.176 311.966 403.459 311.603 403.742 311.234L404.438 313.08H412.53L410.59 305.709C410.535 305.505 410.443 305.314 410.319 305.143Z" fill="#E6E6E6"/>
<path d="M403.256 187.714L389.837 182.232C389.517 180.965 389.246 179.771 389.073 178.719C390.451 177.936 391.658 176.886 392.623 175.629C393.587 174.373 394.29 172.936 394.69 171.404L396.106 169.884C396.858 169.1 397.434 168.164 397.795 167.139C398.157 166.114 398.294 165.024 398.2 163.941C397.954 161.861 396.899 159.96 395.262 158.65C395.81 155.186 394.24 152.639 390.077 151.2C385.939 147.613 379.811 146.745 376.141 152.498C374.657 152.409 373.195 152.897 372.062 153.858C370.928 154.82 370.21 156.182 370.057 157.66C367.039 161.166 370.149 168.162 371.633 173.52C371.747 173.917 371.975 174.271 372.289 174.538C372.604 174.806 372.991 174.974 373.401 175.021C374.387 176.479 375.685 177.699 377.2 178.596C377.239 180.144 377.056 181.689 376.658 183.186L376.671 182.718L366.664 187.215L366.658 187.092L365.691 187.652L364.157 188.341C364.17 188.403 364.182 188.458 364.194 188.52L364.053 188.6C361.897 189.847 360.246 191.808 359.385 194.143L354.243 209.179H400.281C400.75 207.611 401.326 206.078 402.006 204.589L402.018 204.423L406.107 209.179H418.596L403.256 187.714Z" fill="#E6E6E6"/>
<path d="M175.448 312.399C190.336 312.399 202.405 300.342 202.405 285.468C202.405 270.594 190.336 258.537 175.448 258.537C160.561 258.537 148.492 270.594 148.492 285.468C148.492 300.342 160.561 312.399 175.448 312.399Z" fill="#E6E6E6"/>
<path d="M175.448 306.115C186.862 306.115 196.115 296.871 196.115 285.468C196.115 274.065 186.862 264.821 175.448 264.821C164.034 264.821 154.781 274.065 154.781 285.468C154.781 296.871 164.034 306.115 175.448 306.115Z" fill="white"/>
<path d="M185.802 296.745C185.678 296.745 185.556 296.721 185.441 296.673C185.327 296.626 185.223 296.557 185.136 296.469L164.427 275.779C164.258 275.602 164.165 275.365 164.168 275.12C164.171 274.874 164.27 274.64 164.444 274.467C164.617 274.293 164.852 274.194 165.097 274.191C165.343 274.188 165.58 274.281 165.758 274.45L186.467 295.14C186.599 295.271 186.688 295.439 186.724 295.621C186.761 295.803 186.742 295.992 186.671 296.164C186.6 296.336 186.479 296.483 186.324 296.586C186.17 296.689 185.988 296.745 185.802 296.745H185.802Z" fill="#6C63FF"/>
<path d="M174.976 288.977L171.93 285.933C171.912 285.916 171.89 285.905 171.865 285.901C171.841 285.897 171.816 285.901 171.794 285.912C171.772 285.922 171.754 285.94 171.743 285.962C171.731 285.983 171.727 286.008 171.73 286.033C171.853 286.822 172.224 287.553 172.79 288.118C173.356 288.683 174.087 289.054 174.877 289.177C174.901 289.18 174.926 289.176 174.948 289.164C174.97 289.153 174.987 289.135 174.998 289.113C175.009 289.091 175.013 289.066 175.009 289.042C175.005 289.017 174.994 288.995 174.976 288.977L174.976 288.977Z" fill="#6C63FF"/>
<path d="M175.918 281.942L178.969 284.989C178.987 285.007 179.009 285.018 179.034 285.022C179.058 285.026 179.083 285.023 179.105 285.012C179.127 285.001 179.146 284.983 179.157 284.961C179.169 284.939 179.173 284.914 179.169 284.89C179.047 284.099 178.675 283.368 178.109 282.802C177.542 282.236 176.81 281.865 176.019 281.742C175.994 281.739 175.969 281.743 175.947 281.754C175.925 281.765 175.907 281.783 175.896 281.805C175.885 281.827 175.881 281.852 175.885 281.877C175.889 281.901 175.9 281.924 175.918 281.942Z" fill="#6C63FF"/>
<path d="M189.273 286.48C189.468 286.174 189.571 285.82 189.57 285.457C189.568 285.095 189.463 284.741 189.267 284.437C187.757 282.079 185.767 280.066 183.427 278.528C181.054 276.952 178.277 276.093 175.428 276.055C173.992 276.057 172.565 276.291 171.203 276.748C171.165 276.761 171.13 276.783 171.103 276.813C171.076 276.842 171.057 276.878 171.048 276.917C171.039 276.956 171.04 276.997 171.051 277.036C171.062 277.074 171.083 277.109 171.111 277.138L173.89 279.914C173.919 279.943 173.955 279.964 173.994 279.975C174.034 279.986 174.075 279.986 174.115 279.976C175.057 279.747 176.042 279.764 176.976 280.025C177.91 280.286 178.76 280.783 179.446 281.468C180.132 282.153 180.629 283.003 180.891 283.936C181.152 284.869 181.169 285.853 180.94 286.794C180.93 286.834 180.93 286.875 180.941 286.914C180.952 286.954 180.973 286.989 181.001 287.018L184.999 291.015C185.041 291.057 185.096 291.081 185.155 291.084C185.214 291.087 185.272 291.067 185.317 291.029C186.856 289.719 188.189 288.185 189.273 286.48Z" fill="#6C63FF"/>
<path d="M175.447 291.102C174.592 291.102 173.748 290.908 172.979 290.535C172.21 290.162 171.536 289.619 171.007 288.948C170.479 288.276 170.11 287.494 169.928 286.659C169.746 285.824 169.756 284.959 169.958 284.129C169.968 284.09 169.968 284.048 169.957 284.009C169.946 283.97 169.925 283.934 169.896 283.905L165.964 279.975C165.922 279.933 165.866 279.909 165.807 279.906C165.748 279.904 165.691 279.923 165.645 279.961C164.134 281.27 162.797 282.765 161.664 284.412C161.451 284.717 161.334 285.079 161.327 285.451C161.321 285.823 161.425 286.188 161.627 286.501C163.112 288.861 165.083 290.877 167.409 292.417C169.784 293.999 172.573 294.85 175.428 294.864C176.879 294.86 178.321 294.631 179.702 294.185C179.74 294.173 179.775 294.151 179.803 294.121C179.83 294.092 179.849 294.055 179.859 294.016C179.868 293.977 179.868 293.936 179.857 293.897C179.846 293.858 179.825 293.823 179.797 293.795L177.004 291.005C176.975 290.976 176.939 290.955 176.9 290.945C176.861 290.934 176.819 290.933 176.78 290.943C176.343 291.049 175.896 291.102 175.447 291.102Z" fill="#6C63FF"/>
<path d="M73.1719 312.399C88.0597 312.399 100.129 300.342 100.129 285.468C100.129 270.594 88.0597 258.537 73.1719 258.537C58.2842 258.537 46.2153 270.594 46.2153 285.468C46.2153 300.342 58.2842 312.399 73.1719 312.399Z" fill="#E6E6E6"/>
<path d="M73.1719 306.115C84.5858 306.115 93.8386 296.871 93.8386 285.468C93.8386 274.065 84.5858 264.821 73.1719 264.821C61.7579 264.821 52.5051 274.065 52.5051 285.468C52.5051 296.871 61.7579 306.115 73.1719 306.115Z" fill="white"/>
<path d="M81.1114 298.634C79.963 298.634 78.3498 298.219 75.9341 296.87C72.9317 295.267 70.1901 293.219 67.8028 290.794C65.3319 288.443 63.2684 285.698 61.6965 282.673C59.5291 278.735 59.8985 276.67 60.3115 275.788C60.7884 274.823 61.5381 274.02 62.4678 273.477C63.0008 273.128 63.5648 272.829 64.1528 272.583C64.2116 272.558 64.2663 272.534 64.3152 272.512C64.5097 272.402 64.7255 272.335 64.9482 272.315C65.1708 272.294 65.3953 272.322 65.6065 272.395C66.0761 272.62 66.4939 272.941 66.8338 273.335C68.0574 274.707 69.0897 276.238 69.9025 277.886C70.2367 278.456 70.4421 279.093 70.5044 279.75C70.4556 280.401 70.1918 281.018 69.7543 281.502C69.6772 281.608 69.6007 281.708 69.5266 281.806C69.0789 282.393 68.9806 282.563 69.0454 282.867C69.1765 283.476 70.155 285.291 71.7629 286.893C73.3708 288.496 75.1346 289.412 75.747 289.543C76.0636 289.61 76.2371 289.508 76.8443 289.045C76.9314 288.978 77.0208 288.91 77.1143 288.841C77.6009 288.382 78.2283 288.102 78.8946 288.045H78.8981C79.566 288.113 80.2083 288.339 80.7726 288.702C81.8316 289.236 84.2502 290.676 85.3109 291.745C85.7066 292.084 86.0281 292.5 86.2552 292.969C86.328 293.18 86.3552 293.405 86.3349 293.628C86.3146 293.851 86.2474 294.067 86.1375 294.262C86.1158 294.311 86.0916 294.364 86.0663 294.423C85.8187 295.01 85.5176 295.572 85.1668 296.103C84.6217 297.031 83.8162 297.779 82.8499 298.253C82.3067 298.51 81.7123 298.64 81.1114 298.634Z" fill="#6C63FF"/>
<path d="M278.518 312.399C293.405 312.399 305.474 300.342 305.474 285.468C305.474 270.594 293.405 258.537 278.518 258.537C263.63 258.537 251.561 270.594 251.561 285.468C251.561 300.342 263.63 312.399 278.518 312.399Z" fill="#E6E6E6"/>
<path d="M278.518 306.115C289.932 306.115 299.185 296.871 299.185 285.468C299.185 274.065 289.932 264.821 278.518 264.821C267.104 264.821 257.851 274.065 257.851 285.468C257.851 296.871 267.104 306.115 278.518 306.115Z" fill="white"/>
<path d="M282.283 297.694H274.752C274.503 297.694 274.263 297.595 274.087 297.418C273.91 297.242 273.811 297.003 273.811 296.753C273.811 296.504 273.91 296.265 274.087 296.088C274.263 295.912 274.503 295.813 274.752 295.813H282.283C282.533 295.813 282.772 295.912 282.949 296.088C283.125 296.265 283.224 296.504 283.224 296.753C283.224 297.003 283.125 297.242 282.949 297.418C282.772 297.595 282.533 297.694 282.283 297.694Z" fill="#6C63FF"/>
<path d="M278.518 292.991C276.272 292.989 274.118 292.096 272.53 290.51C270.942 288.923 270.048 286.772 270.046 284.528V282.647C270.046 282.397 270.145 282.158 270.321 281.982C270.498 281.805 270.737 281.706 270.987 281.706C271.237 281.706 271.476 281.805 271.653 281.982C271.829 282.158 271.928 282.397 271.928 282.647V284.528C271.93 286.272 272.625 287.945 273.86 289.179C275.096 290.412 276.771 291.105 278.518 291.105C280.264 291.105 281.939 290.412 283.175 289.179C284.411 287.945 285.105 286.272 285.107 284.528V282.647C285.107 282.397 285.206 282.158 285.383 281.982C285.559 281.805 285.799 281.706 286.048 281.706C286.298 281.706 286.537 281.805 286.714 281.982C286.89 282.158 286.99 282.397 286.99 282.647V284.528C286.987 286.772 286.094 288.923 284.505 290.51C282.917 292.096 280.764 292.989 278.518 292.991Z" fill="#6C63FF"/>
<path d="M278.518 297.694C278.394 297.694 278.272 297.669 278.158 297.622C278.043 297.575 277.94 297.506 277.852 297.418C277.765 297.331 277.695 297.227 277.648 297.113C277.601 296.999 277.576 296.877 277.576 296.753V292.051C277.576 291.802 277.676 291.562 277.852 291.386C278.029 291.21 278.268 291.111 278.518 291.111C278.767 291.111 279.007 291.21 279.183 291.386C279.36 291.562 279.459 291.802 279.459 292.051V296.753C279.459 296.877 279.435 296.999 279.387 297.113C279.34 297.227 279.271 297.331 279.183 297.418C279.096 297.506 278.992 297.575 278.878 297.622C278.764 297.669 278.641 297.694 278.518 297.694Z" fill="#6C63FF"/>
<path d="M278.518 289.23C277.897 289.228 277.282 289.102 276.711 288.859C276.139 288.615 275.622 288.26 275.191 287.813C274.308 286.924 273.812 285.722 273.811 284.469V277.945C273.809 277.329 273.928 276.72 274.161 276.151C274.395 275.581 274.738 275.064 275.172 274.627C275.605 274.19 276.121 273.843 276.689 273.606C277.257 273.368 277.866 273.245 278.481 273.242C278.494 273.242 278.506 273.242 278.518 273.242C279.138 273.236 279.753 273.353 280.327 273.587C280.901 273.821 281.423 274.167 281.861 274.605C282.299 275.043 282.646 275.564 282.88 276.137C283.114 276.711 283.231 277.325 283.225 277.945V284.469C283.231 285.723 282.739 286.929 281.857 287.821C280.974 288.714 279.774 289.22 278.518 289.23Z" fill="#6C63FF"/>
<path d="M37.8556 30.9084C37.2033 30.9092 36.5779 31.1685 36.1166 31.6293C35.6553 32.0902 35.3958 32.715 35.395 33.3667V232.857C35.3958 233.508 35.6553 234.133 36.1166 234.594C36.5779 235.055 37.2033 235.314 37.8556 235.315H306.064C306.716 235.314 307.342 235.055 307.803 234.594C308.264 234.133 308.524 233.508 308.524 232.857V33.3667C308.524 32.715 308.264 32.0902 307.803 31.6293C307.342 31.1685 306.716 30.9092 306.064 30.9084H37.8556Z" fill="#E6E6E6"/>
<path d="M43.269 38.7749V227.449H300.65V38.7749H43.269Z" fill="white"/>
<path d="M220.989 227.449L221.452 225.635L217.429 208.984L217.037 207.349L216.741 206.128L217.212 205.97L240.982 198.057L241.286 202.451L243.01 227.449H220.989Z" fill="#FFB9B9"/>
<path d="M126.49 208.984L122.467 225.635L122.931 227.449H100.91L102.633 202.451L102.938 198.057L127.179 206.128L126.49 208.984Z" fill="#FFB9B9"/>
<path d="M191.824 142.217L153.442 146.254C157.474 135.885 156.728 123.985 153.442 111.271H181.05C182.864 122.121 186.507 132.585 191.824 142.217Z" fill="#FFB9B9"/>
<path d="M167.583 127.417C179.111 127.417 188.457 118.08 188.457 106.562C188.457 95.0446 179.111 85.7075 167.583 85.7075C156.054 85.7075 146.708 95.0446 146.708 106.562C146.708 118.08 156.054 127.417 167.583 127.417Z" fill="#FFB9B9"/>
<path d="M227.516 150.292C223.109 169.749 219.482 188.247 217.212 205.97C217.15 206.432 217.091 206.891 217.037 207.35C216.962 207.95 216.887 208.55 216.82 209.151C216.077 215.342 215.517 221.441 215.138 227.449H131.127C131.214 221.783 131.027 215.988 130.605 210.114C129.157 189.964 124.905 168.894 119.1 148.945L119.142 148.928L155.869 136.254L156.136 136.163C166.723 141.045 177.264 141.27 187.721 133.861C187.755 133.84 187.784 133.815 187.817 133.795L222.053 148.024L222.066 148.028L227.516 150.292Z" fill="#6C63FF"/>
<path d="M252.428 199.4L210.679 210.837L220.78 147.599L227.223 149.745C229.585 150.532 231.714 151.896 233.414 153.715C235.114 155.533 236.332 157.747 236.957 160.156L252.428 199.4Z" fill="#6C63FF"/>
<path d="M91.4912 199.4L133.241 210.837L123.14 147.599L116.697 149.745C114.334 150.532 112.206 151.896 110.506 153.715C108.806 155.533 107.588 157.747 106.963 160.156L91.4912 199.4Z" fill="#6C63FF"/>
<path d="M166.241 71.2841C162.69 71.447 159.231 72.4645 156.159 74.2499C155.452 74.6607 155.779 76.1424 155.125 76.6256C154.303 77.2341 152.517 76.8646 151.789 77.5773C149.438 79.8703 147.628 82.6578 146.49 85.7372C145.352 88.8166 144.916 92.1105 145.212 95.3796L146.372 106.899L149.107 103.91C154.012 98.4762 160.822 95.1363 168.124 94.5824C168.435 94.5613 168.745 94.5448 169.057 94.5328L166.952 90.8531L170.61 94.5074C172.279 94.5257 173.944 94.6612 175.593 94.9127L172.794 90.0193L178.165 95.3845L178.165 95.3848C180.361 95.8673 182.414 96.8585 184.156 98.2785C185.899 99.6984 187.283 101.507 188.198 103.56L188.794 104.881L189.462 93.8911C189.528 90.8537 188.968 87.8352 187.817 85.0233C186.666 82.2113 184.948 79.666 182.77 77.5457C180.592 75.4254 178 73.7753 175.157 72.6981C172.314 71.6209 169.279 71.1396 166.241 71.2841Z" fill="#2F2E41"/>
<path d="M146.921 110.031C147.843 110.031 148.591 108.258 148.591 106.07C148.591 103.883 147.843 102.11 146.921 102.11C146 102.11 145.252 103.883 145.252 106.07C145.252 108.258 146 110.031 146.921 110.031Z" fill="#FFB9B9"/>
<path d="M188.652 108.78C189.574 108.78 190.321 107.007 190.321 104.82C190.321 102.632 189.574 100.859 188.652 100.859C187.73 100.859 186.983 102.632 186.983 104.82C186.983 107.007 187.73 108.78 188.652 108.78Z" fill="#FFB9B9"/>
</g>
<defs>
<clipPath id="clip0">
<rect width="465" height="348" fill="white"/>
</clipPath>
</defs>
</svg>
