<svg width="421" height="152" viewBox="0 0 421 152" fill="none" xmlns="http://www.w3.org/2000/svg">
<path d="M31.1122 33.1799C28.085 35.3658 24.6094 36.2065 20.8536 36.2065C11.2116 36.2065 4.09223 29.2566 4.09223 19.9528C4.09223 10.5929 11.2116 3.69911 20.9096 3.69911C25.5064 3.69911 29.4304 5.04425 32.7378 8.29498L35.3165 5.66077C31.8409 1.9056 26.6836 0 20.7414 0C8.74504 0 0 8.46313 0 19.9528C0 31.4425 8.74504 39.9056 20.6854 39.9056C26.123 39.9056 31.3925 38.2242 35.0923 34.9174V19.9528H31.1122V33.1799Z" fill="white"/>
<path d="M254.715 39.9056C266.487 39.9056 275.288 31.4425 275.288 19.9528C275.288 8.46313 266.487 0 254.715 0C242.831 0 234.086 8.51918 234.086 19.9528C234.086 31.3864 242.831 39.9056 254.715 39.9056ZM254.715 36.2065C245.241 36.2065 238.178 29.3127 238.178 19.9528C238.178 10.5929 245.241 3.69911 254.715 3.69911C264.133 3.69911 271.14 10.5929 271.14 19.9528C271.14 29.3127 264.133 36.2065 254.715 36.2065Z" fill="white"/>
<path d="M333.274 0.336282L321.782 34.2448L310.234 0.336282H306.366L294.65 34.0767L283.326 0.336282H279.066L292.295 39.5693H296.612L308.16 6.10915L319.652 39.5693H324.024L337.254 0.336282H333.274Z" fill="white"/>
<path d="M353.031 39.5693H357.179V3.9233H370.97V0.336282H339.241V3.9233H353.031V39.5693Z" fill="white"/>
<path d="M406.298 0.336282V17.823H381.745V0.336282H377.597V39.5693H381.745V21.4661H406.298V39.5693H410.391V0.336282H406.298Z" fill="white"/>
<path d="M28.1971 75.3835C31.7849 73.9263 34.1954 70.9557 34.1954 66.472C34.1954 60.0826 29.1501 56.3835 20.4051 56.3835H3.47559V95.6165H21.5263C31.3364 95.6165 36.2695 91.8053 36.2695 85.1357C36.2695 79.8112 33.2424 76.5044 28.1971 75.3835ZM20.1248 59.8024C26.4033 59.8024 30.0471 62.2124 30.0471 66.9203C30.0471 71.6283 26.4033 74.0383 20.1248 74.0383H7.62388V59.8024H20.1248ZM21.4702 92.1976H7.62388V77.4572H21.4702C28.3653 77.4572 32.1212 79.6991 32.1212 84.7994C32.1212 89.9557 28.3653 92.1976 21.4702 92.1976Z" fill="white"/>
<path d="M49.8863 92.0295V77.4572H70.1793V73.9262H49.8863V59.9705H72.6458V56.3835H45.738V95.6165H73.4867V92.0295H49.8863Z" fill="white"/>
<path d="M111.895 56.3835H107.747L94.293 78.41L80.8391 56.3835H76.4105L92.1067 82.0531V95.6165H96.1989V82.0531L111.895 56.3835Z" fill="white"/>
<path d="M367.102 56.3835V88.2183L341.819 56.3835H338.4V95.6165H342.548V63.7817L367.774 95.6165H371.194V56.3835H367.102Z" fill="white"/>
<path d="M384.002 95.6165H399.978C412.535 95.6165 421 87.5457 421 76C421 64.4543 412.535 56.3835 399.978 56.3835H384.002V95.6165ZM388.15 92.0295V59.9705H399.754C410.181 59.9705 416.908 66.5841 416.908 76C416.908 85.4159 410.181 92.0295 399.754 92.0295H388.15Z" fill="white"/>
<path d="M196.686 152C208.458 152 217.26 143.537 217.26 132.047C217.26 120.558 208.458 112.094 196.686 112.094C184.802 112.094 176.057 120.614 176.057 132.047C176.057 143.481 184.802 152 196.686 152ZM196.686 148.301C187.213 148.301 180.149 141.407 180.149 132.047C180.149 122.687 187.213 115.794 196.686 115.794C206.104 115.794 213.111 122.687 213.111 132.047C213.111 141.407 206.104 148.301 196.686 148.301Z" fill="white"/>
<path d="M257.894 151.664L248.308 138.212C254.026 136.363 257.278 132.047 257.278 125.882C257.278 117.475 251.223 112.431 241.245 112.431H226.558V151.664H230.706V139.221H241.245C242.366 139.221 243.375 139.165 244.384 139.053L253.353 151.664H257.894ZM241.133 135.69H230.706V116.018H241.133C248.981 116.018 253.129 119.605 253.129 125.882C253.129 132.047 248.981 135.69 241.133 135.69Z" fill="white"/>
<path d="M267.068 151.664H283.045C295.602 151.664 304.067 143.593 304.067 132.047C304.067 120.501 295.602 112.431 283.045 112.431H267.068V151.664ZM271.217 148.077V116.018H282.821C293.247 116.018 299.974 122.631 299.974 132.047C299.974 141.463 293.247 148.077 282.821 148.077H271.217Z" fill="white"/>
<path d="M317.53 148.077V133.504H337.823V129.973H317.53V116.018H340.29V112.431H313.382V151.664H341.131V148.077H317.53Z" fill="white"/>
<path d="M382.218 151.664L372.632 138.212C378.35 136.363 381.601 132.047 381.601 125.882C381.601 117.475 375.547 112.431 365.569 112.431H350.882V151.664H355.03V139.221H365.569C366.69 139.221 367.699 139.165 368.708 139.053L377.677 151.664H382.218ZM365.457 135.69H355.03V116.018H365.457C373.305 116.018 377.453 119.605 377.453 125.882C377.453 132.047 373.305 135.69 365.457 135.69Z" fill="white"/>
<path d="M402.211 152C412.246 152 416.842 147.068 416.842 141.295C416.842 127.003 392.682 133.504 392.682 122.743C392.682 118.82 395.877 115.625 403.052 115.625C406.528 115.625 410.452 116.69 413.815 118.876L415.217 115.569C412.078 113.383 407.481 112.094 403.052 112.094C393.074 112.094 388.589 117.083 388.589 122.855C388.589 137.372 412.75 130.758 412.75 141.519C412.75 145.386 409.555 148.469 402.211 148.469C397.054 148.469 392.065 146.451 389.262 143.705L387.636 146.9C390.551 149.926 396.325 152 402.211 152Z" fill="white"/>
<path fill-rule="evenodd" clip-rule="evenodd" d="M309.328 59.7463H134.988C126.938 59.7463 120.412 66.2705 120.412 74.3186V77.6814C120.412 85.7295 126.938 92.2537 134.988 92.2537H309.328C317.377 92.2537 323.903 85.7295 323.903 77.6814V74.3186C323.903 66.2705 317.377 59.7463 309.328 59.7463ZM134.988 56.3835C125.08 56.3835 117.049 64.4133 117.049 74.3186V77.6814C117.049 87.5867 125.08 95.6165 134.988 95.6165H309.328C319.235 95.6165 327.266 87.5867 327.266 77.6814V74.3186C327.266 64.4133 319.235 56.3835 309.328 56.3835H134.988Z" fill="white"/>
<path d="M223.223 39.5693L213.637 26.118C219.355 24.2684 222.606 19.9528 222.606 13.7876C222.606 5.38052 216.552 0.336273 206.574 0.336273H47.5371V39.5693H51.6854V27.1268H206.574C207.695 27.1268 208.704 27.0708 209.713 26.9587L218.682 39.5693H223.223ZM206.461 23.5959H51.6854V3.92329H206.461C214.31 3.92329 218.458 7.51031 218.458 13.7876C218.458 19.9528 214.31 23.5959 206.461 23.5959Z" fill="white"/>
<path d="M157.355 131.431C160.942 129.973 163.353 127.003 163.353 122.519C163.353 116.13 158.308 112.431 149.563 112.431H3.25136V151.664H150.684C160.494 151.664 165.427 147.853 165.427 141.183C165.427 135.858 162.4 132.552 157.355 131.431ZM149.282 115.85C155.561 115.85 159.205 118.26 159.205 122.968C159.205 127.676 155.561 130.086 149.282 130.086H7.39965V115.85H149.282ZM150.628 148.245H7.39965V133.504H150.628C157.523 133.504 161.279 135.746 161.279 140.847C161.279 146.003 157.523 148.245 150.628 148.245Z" fill="white"/>
</svg>
