<?xml version="1.0" encoding="utf-8"?>
<!-- Generator: Adobe Illustrator 17.0.0, SVG Export Plug-In . SVG Version: 6.00 Build 0)  -->
<!DOCTYPE svg PUBLIC "-//W3C//DTD SVG 1.1//EN" "http://www.w3.org/Graphics/SVG/1.1/DTD/svg11.dtd">
<svg version="1.1" id="UXPH_Logo_1_" xmlns="http://www.w3.org/2000/svg" xmlns:xlink="http://www.w3.org/1999/xlink" x="0px"
	 y="0px" width="470px" height="119px" viewBox="0 0 470 119" enable-background="new 0 0 470 119" xml:space="preserve">
<g id="UXPH_Logo">
	<path fill="#00B6E0" d="M300.08,4H250v112h38V90h12.08c34.27,0,49.062-18.592,49.062-43C349.143,22.593,334.35,4,300.08,4z
		 M300.08,58H288V36h12.08c6.164,0,12.081,4.25,12.081,11S306.244,58,300.08,58z M427,4v41h-31V4h-38v112h38V77h31v39h38V4H427z"/>
	<path fill="#007BBF" d="M358,77h38V45h-38V77z M427,45v32h38V45H427z M250,90h38V58h-38V90z M250,36h38V4h-38V36z"/>
	<path fill="#FF422E" d="M240,4h-38l-21.25,21.118L159.5,4H121v32l24.15,24L121,84v32h38.5l21.25-21.118L202,116h38V84l-24.15-24
		L240,36V4z M73,62c-0.003,13.5-6.828,19-15.743,19H57.25C48.335,81,41,75.5,41,62s0-58,0-58H3l0.002,58
		c0.103,35.809,22.131,52.412,50.079,53.891c1.377,0.073,6.714,0.073,8.092,0C89.052,114.415,111,97.625,111,62V4H73V62z"/>
	<path fill="#CE0000" d="M202,4l0.003,32H240V4H202z M121.003,36H159V4h-38L121.003,36z M202.003,116H240V84h-38L202.003,116z
		 M121.003,116H158V84h-37L121.003,116z M73,36h38V4H73V36z M3.003,36H41V4H3L3.003,36z"/>
</g>
</svg>
