<svg width="438" height="339" viewBox="0 0 438 339" fill="none" xmlns="http://www.w3.org/2000/svg">
<path d="M9.30449 325.955L29.6895 306.38C31.4895 304.58 34.0095 302.24 37.2495 299.36C42.3795 294.68 46.2945 290.9 48.9945 288.02C51.6945 285.14 53.8995 282.08 55.6095 278.84C57.3195 275.51 58.1745 271.955 58.1745 268.175C58.1745 262.595 56.5545 258.365 53.3145 255.485C50.0745 252.515 45.3495 251.03 39.1395 251.03C34.9095 251.03 30.5445 251.795 26.0445 253.325C21.6345 254.855 17.4945 257.105 13.6245 260.075V246.845C21.1845 241.355 30.4095 238.61 41.2995 238.61C51.0195 238.61 58.5795 241.22 63.9795 246.44C69.3795 251.57 72.0795 258.59 72.0795 267.5C72.0795 271.82 71.1345 275.96 69.2445 279.92C67.4445 283.88 64.8795 287.795 61.5495 291.665C58.2195 295.445 53.7195 300.08 48.0495 305.57L29.6895 323.525H75.5895V335H9.30449V325.955Z" fill="#9B45BB"/>
<path d="M160.782 337.025C152.682 337.025 145.662 335.045 139.722 331.085C133.872 327.125 129.372 321.455 126.222 314.075C123.072 306.695 121.497 297.965 121.497 287.885C121.497 277.805 123.027 269.075 126.087 261.695C129.237 254.225 133.737 248.51 139.587 244.55C145.527 240.59 152.592 238.61 160.782 238.61C168.972 238.61 175.992 240.59 181.842 244.55C187.782 248.51 192.282 254.225 195.342 261.695C198.492 269.075 200.067 277.805 200.067 287.885C200.067 297.965 198.492 306.695 195.342 314.075C192.192 321.455 187.647 327.125 181.707 331.085C175.857 335.045 168.882 337.025 160.782 337.025ZM160.782 324.875C168.792 324.875 175.047 321.59 179.547 315.02C184.137 308.36 186.432 299.36 186.432 288.02C186.432 276.68 184.182 267.68 179.682 261.02C175.182 254.36 168.882 251.03 160.782 251.03C152.682 251.03 146.382 254.36 141.882 261.02C137.382 267.68 135.132 276.68 135.132 288.02C135.132 299.36 137.382 308.36 141.882 315.02C146.472 321.59 152.772 324.875 160.782 324.875Z" fill="#9B45BB"/>
<path d="M245.95 325.955L266.335 306.38C268.135 304.58 270.655 302.24 273.895 299.36C279.025 294.68 282.94 290.9 285.64 288.02C288.34 285.14 290.545 282.08 292.255 278.84C293.965 275.51 294.82 271.955 294.82 268.175C294.82 262.595 293.2 258.365 289.96 255.485C286.72 252.515 281.995 251.03 275.785 251.03C271.555 251.03 267.19 251.795 262.69 253.325C258.28 254.855 254.14 257.105 250.27 260.075V246.845C257.83 241.355 267.055 238.61 277.945 238.61C287.665 238.61 295.225 241.22 300.625 246.44C306.025 251.57 308.725 258.59 308.725 267.5C308.725 271.82 307.78 275.96 305.89 279.92C304.09 283.88 301.525 287.795 298.195 291.665C294.865 295.445 290.365 300.08 284.695 305.57L266.335 323.525H312.235V335H245.95V325.955Z" fill="#9B45BB"/>
<path d="M397.427 337.025C389.327 337.025 382.307 335.045 376.367 331.085C370.517 327.125 366.017 321.455 362.867 314.075C359.717 306.695 358.142 297.965 358.142 287.885C358.142 277.805 359.672 269.075 362.732 261.695C365.882 254.225 370.382 248.51 376.232 244.55C382.172 240.59 389.237 238.61 397.427 238.61C405.617 238.61 412.637 240.59 418.487 244.55C424.427 248.51 428.927 254.225 431.987 261.695C435.137 269.075 436.712 277.805 436.712 287.885C436.712 297.965 435.137 306.695 431.987 314.075C428.837 321.455 424.292 327.125 418.352 331.085C412.502 335.045 405.527 337.025 397.427 337.025ZM397.427 324.875C405.437 324.875 411.692 321.59 416.192 315.02C420.782 308.36 423.077 299.36 423.077 288.02C423.077 276.68 420.827 267.68 416.327 261.02C411.827 254.36 405.527 251.03 397.427 251.03C389.327 251.03 383.027 254.36 378.527 261.02C374.027 267.68 371.777 276.68 371.777 288.02C371.777 299.36 374.027 308.36 378.527 315.02C383.117 321.59 389.417 324.875 397.427 324.875Z" fill="#9B45BB"/>
<path fill-rule="evenodd" clip-rule="evenodd" d="M8.30449 325.529L28.9895 305.666C30.8083 303.847 33.3408 301.496 36.5803 298.617C41.7008 293.945 45.5921 290.187 48.265 287.336C50.9071 284.518 53.0575 281.532 54.7224 278.378C56.3574 275.193 57.1745 271.796 57.1745 268.175C57.1745 262.793 55.619 258.871 52.6501 256.232L52.6444 256.227L52.6388 256.222C49.6473 253.48 45.2024 252.03 39.1395 252.03C35.0325 252.03 30.7773 252.772 26.3693 254.271C22.0661 255.764 18.0213 257.961 14.2333 260.868L12.6245 262.103V246.335L13.0369 246.036C20.7948 240.402 30.2345 237.61 41.2995 237.61C51.1978 237.61 59.0351 240.271 64.6715 245.718C70.3066 251.073 73.0795 258.376 73.0795 267.5C73.0795 271.968 72.1015 276.252 70.1511 280.342C68.3059 284.399 65.6866 288.39 62.3075 292.317L62.2999 292.326C58.946 296.133 54.4261 300.788 48.7476 306.286C48.7468 306.287 48.7459 306.288 48.7451 306.288L32.1423 322.525H76.5895V336H8.30449V325.529ZM29.6895 323.525L48.0495 305.57C53.7195 300.08 58.2195 295.445 61.5495 291.665C64.8795 287.795 67.4445 283.88 69.2445 279.92C71.1345 275.96 72.0795 271.82 72.0795 267.5C72.0795 258.59 69.3795 251.57 63.9795 246.44C58.5795 241.22 51.0195 238.61 41.2995 238.61C30.4095 238.61 21.1845 241.355 13.6245 246.845V260.075C13.9558 259.821 14.2892 259.572 14.6245 259.328C18.2054 256.725 22.0121 254.724 26.0445 253.325C30.5445 251.795 34.9095 251.03 39.1395 251.03C45.3495 251.03 50.0745 252.515 53.3145 255.485C56.5545 258.365 58.1745 262.595 58.1745 268.175C58.1745 271.955 57.3195 275.51 55.6095 278.84C53.8995 282.08 51.6945 285.14 48.9945 288.02C46.2945 290.9 42.3795 294.68 37.2495 299.36C34.0095 302.24 31.4895 304.58 29.6895 306.38L9.30449 325.955V335H75.5895V323.525H29.6895ZM139.167 331.917L139.161 331.913C133.131 327.831 128.517 322 125.302 314.468C122.087 306.936 120.497 298.067 120.497 287.885C120.497 277.707 122.041 268.841 125.163 261.312L125.165 261.306C128.379 253.685 132.993 247.806 139.026 243.722L139.032 243.718C145.16 239.633 152.424 237.61 160.782 237.61C169.138 237.61 176.36 239.632 182.4 243.72C188.524 247.804 193.14 253.684 196.264 261.309C199.477 268.839 201.067 277.706 201.067 287.885C201.067 298.067 199.476 306.936 196.262 314.468C193.045 322.003 188.384 327.835 182.264 331.916C176.226 336.002 169.05 338.025 160.782 338.025C152.512 338.025 145.293 336.001 139.167 331.917ZM181.707 331.085C187.647 327.125 192.192 321.455 195.342 314.075C198.492 306.695 200.067 297.965 200.067 287.885C200.067 277.805 198.492 269.075 195.342 261.695C192.282 254.225 187.782 248.51 181.842 244.55C175.992 240.59 168.972 238.61 160.782 238.61C152.592 238.61 145.527 240.59 139.587 244.55C133.737 248.51 129.237 254.225 126.087 261.695C123.027 269.075 121.497 277.805 121.497 287.885C121.497 297.965 123.072 306.695 126.222 314.075C129.372 321.455 133.872 327.125 139.722 331.085C145.662 335.045 152.682 337.025 160.782 337.025C168.882 337.025 175.857 335.045 181.707 331.085ZM178.722 314.455L178.723 314.453C183.161 308.014 185.432 299.236 185.432 288.02C185.432 276.801 183.204 268.019 178.853 261.58C174.541 255.198 168.553 252.03 160.782 252.03C153.011 252.03 147.023 255.198 142.71 261.58C138.359 268.019 136.132 276.801 136.132 288.02C136.132 299.236 138.358 308.015 142.706 314.454C147.109 320.752 153.101 323.875 160.782 323.875C168.464 323.875 174.41 320.751 178.722 314.455ZM141.882 315.02C137.382 308.36 135.132 299.36 135.132 288.02C135.132 276.68 137.382 267.68 141.882 261.02C146.382 254.36 152.682 251.03 160.782 251.03C168.882 251.03 175.182 254.36 179.682 261.02C184.182 267.68 186.432 276.68 186.432 288.02C186.432 299.36 184.137 308.36 179.547 315.02C175.047 321.59 168.792 324.875 160.782 324.875C152.772 324.875 146.472 321.59 141.882 315.02ZM244.95 325.529L265.628 305.673C265.63 305.67 265.633 305.668 265.635 305.665C267.454 303.847 269.986 301.497 273.225 298.617C278.346 293.946 282.237 290.187 284.91 287.336C287.553 284.517 289.704 281.53 291.369 278.377C293.003 275.191 293.82 271.795 293.82 268.175C293.82 262.793 292.264 258.871 289.296 256.232L289.29 256.227L289.284 256.222C286.293 253.48 281.848 252.03 275.785 252.03C271.678 252.03 267.423 252.772 263.014 254.271C258.711 255.764 254.667 257.961 250.879 260.868L249.27 262.103V246.335L249.682 246.036C257.44 240.402 266.88 237.61 277.945 237.61C287.844 237.61 295.681 240.272 301.318 245.719C306.952 251.074 309.725 258.376 309.725 267.5C309.725 271.968 308.747 276.252 306.797 280.341C304.952 284.399 302.332 288.39 298.953 292.317L298.945 292.326C295.591 296.134 291.07 300.789 285.391 306.288L268.788 322.525H313.235V336H244.95V325.529ZM266.335 323.525L284.695 305.57C290.365 300.08 294.865 295.445 298.195 291.665C301.525 287.795 304.09 283.88 305.89 279.92C307.78 275.96 308.725 271.82 308.725 267.5C308.725 258.59 306.025 251.57 300.625 246.44C295.225 241.22 287.665 238.61 277.945 238.61C267.055 238.61 257.83 241.355 250.27 246.845V260.075C250.601 259.821 250.935 259.572 251.27 259.328C254.851 256.725 258.658 254.724 262.69 253.325C267.19 251.795 271.555 251.03 275.785 251.03C281.995 251.03 286.72 252.515 289.96 255.485C293.2 258.365 294.82 262.595 294.82 268.175C294.82 271.955 293.965 275.51 292.255 278.84C290.545 282.08 288.34 285.14 285.64 288.02C282.94 290.9 279.025 294.68 273.895 299.36C270.655 302.24 268.135 304.58 266.335 306.38L245.95 325.955V335H312.235V323.525H266.335ZM375.813 331.917L375.807 331.913C369.777 327.831 365.163 322 361.948 314.468C358.733 306.936 357.142 298.067 357.142 287.885C357.142 277.707 358.687 268.841 361.809 261.312L361.811 261.306C365.025 253.685 369.639 247.806 375.672 243.722L375.678 243.718C381.805 239.633 389.07 237.61 397.427 237.61C405.783 237.61 413.005 239.632 419.045 243.72C425.169 247.803 429.785 253.684 432.91 261.309C436.123 268.839 437.712 277.706 437.712 287.885C437.712 298.067 436.122 306.936 432.907 314.468C429.691 322.002 425.031 327.833 418.911 331.914C412.873 336.001 405.696 338.025 397.427 338.025C389.157 338.025 381.938 336.001 375.813 331.917ZM418.352 331.085C424.292 327.125 428.837 321.455 431.987 314.075C435.137 306.695 436.712 297.965 436.712 287.885C436.712 277.805 435.137 269.075 431.987 261.695C428.927 254.225 424.427 248.51 418.487 244.55C412.637 240.59 405.617 238.61 397.427 238.61C389.237 238.61 382.172 240.59 376.232 244.55C370.382 248.51 365.882 254.225 362.732 261.695C359.672 269.075 358.142 277.805 358.142 287.885C358.142 297.965 359.717 306.695 362.867 314.075C366.017 321.455 370.517 327.125 376.367 331.085C382.307 335.045 389.327 337.025 397.427 337.025C405.527 337.025 412.502 335.045 418.352 331.085ZM415.367 314.455L415.369 314.453C419.806 308.014 422.077 299.236 422.077 288.02C422.077 276.801 419.85 268.019 415.499 261.58C411.186 255.198 405.198 252.03 397.427 252.03C389.656 252.03 383.668 255.198 379.356 261.58C375.005 268.019 372.777 276.801 372.777 288.02C372.777 299.236 375.004 308.015 379.352 314.454C383.755 320.752 389.747 323.875 397.427 323.875C405.11 323.875 411.055 320.751 415.367 314.455ZM378.527 315.02C374.027 308.36 371.777 299.36 371.777 288.02C371.777 276.68 374.027 267.68 378.527 261.02C383.027 254.36 389.327 251.03 397.427 251.03C405.527 251.03 411.827 254.36 416.327 261.02C420.827 267.68 423.077 276.68 423.077 288.02C423.077 299.36 420.782 308.36 416.192 315.02C411.692 321.59 405.437 324.875 397.427 324.875C389.417 324.875 383.117 321.59 378.527 315.02Z" fill="#9B45BB"/>
<path d="M9.3045 325.955L29.6895 306.38C31.4895 304.58 34.0095 302.24 37.2495 299.36C42.3795 294.68 46.2945 290.9 48.9945 288.02C51.6945 285.14 53.8995 282.08 55.6095 278.84C57.3195 275.51 58.1745 271.955 58.1745 268.175C58.1745 262.595 56.5545 258.365 53.3145 255.485C50.0745 252.515 45.3495 251.03 39.1395 251.03C34.9095 251.03 30.5445 251.795 26.0445 253.325C21.6345 254.855 17.4945 257.105 13.6245 260.075V246.845C21.1845 241.355 30.4095 238.61 41.2995 238.61C51.0195 238.61 58.5795 241.22 63.9795 246.44C69.3795 251.57 72.0795 258.59 72.0795 267.5C72.0795 271.82 71.1345 275.96 69.2445 279.92C67.4445 283.88 64.8795 287.795 61.5495 291.665C58.2195 295.445 53.7195 300.08 48.0495 305.57L29.6895 323.525H75.5895V335H9.3045V325.955Z" fill="#BB6BD9"/>
<path d="M160.782 337.025C152.682 337.025 145.662 335.045 139.722 331.085C133.872 327.125 129.372 321.455 126.222 314.075C123.072 306.695 121.497 297.965 121.497 287.885C121.497 277.805 123.027 269.075 126.087 261.695C129.237 254.225 133.737 248.51 139.587 244.55C145.527 240.59 152.592 238.61 160.782 238.61C168.972 238.61 175.992 240.59 181.842 244.55C187.782 248.51 192.282 254.225 195.342 261.695C198.492 269.075 200.067 277.805 200.067 287.885C200.067 297.965 198.492 306.695 195.342 314.075C192.192 321.455 187.647 327.125 181.707 331.085C175.857 335.045 168.882 337.025 160.782 337.025ZM160.782 324.875C168.792 324.875 175.047 321.59 179.547 315.02C184.137 308.36 186.432 299.36 186.432 288.02C186.432 276.68 184.182 267.68 179.682 261.02C175.182 254.36 168.882 251.03 160.782 251.03C152.682 251.03 146.382 254.36 141.882 261.02C137.382 267.68 135.132 276.68 135.132 288.02C135.132 299.36 137.382 308.36 141.882 315.02C146.472 321.59 152.772 324.875 160.782 324.875Z" fill="#BB6BD9"/>
<path d="M245.95 325.955L266.335 306.38C268.135 304.58 270.655 302.24 273.895 299.36C279.025 294.68 282.94 290.9 285.64 288.02C288.34 285.14 290.545 282.08 292.255 278.84C293.965 275.51 294.82 271.955 294.82 268.175C294.82 262.595 293.2 258.365 289.96 255.485C286.72 252.515 281.995 251.03 275.785 251.03C271.555 251.03 267.19 251.795 262.69 253.325C258.28 254.855 254.14 257.105 250.27 260.075V246.845C257.83 241.355 267.055 238.61 277.945 238.61C287.665 238.61 295.225 241.22 300.625 246.44C306.025 251.57 308.725 258.59 308.725 267.5C308.725 271.82 307.78 275.96 305.89 279.92C304.09 283.88 301.525 287.795 298.195 291.665C294.865 295.445 290.365 300.08 284.695 305.57L266.335 323.525H312.235V335H245.95V325.955Z" fill="#BB6BD9"/>
<path d="M397.427 337.025C389.327 337.025 382.307 335.045 376.367 331.085C370.517 327.125 366.017 321.455 362.867 314.075C359.717 306.695 358.142 297.965 358.142 287.885C358.142 277.805 359.672 269.075 362.732 261.695C365.882 254.225 370.382 248.51 376.232 244.55C382.172 240.59 389.237 238.61 397.427 238.61C405.617 238.61 412.637 240.59 418.487 244.55C424.427 248.51 428.927 254.225 431.987 261.695C435.137 269.075 436.712 277.805 436.712 287.885C436.712 297.965 435.137 306.695 431.987 314.075C428.837 321.455 424.292 327.125 418.352 331.085C412.502 335.045 405.527 337.025 397.427 337.025ZM397.427 324.875C405.437 324.875 411.692 321.59 416.192 315.02C420.782 308.36 423.077 299.36 423.077 288.02C423.077 276.68 420.827 267.68 416.327 261.02C411.827 254.36 405.527 251.03 397.427 251.03C389.327 251.03 383.027 254.36 378.527 261.02C374.027 267.68 371.777 276.68 371.777 288.02C371.777 299.36 374.027 308.36 378.527 315.02C383.117 321.59 389.417 324.875 397.427 324.875Z" fill="#BB6BD9"/>
<path fill-rule="evenodd" clip-rule="evenodd" d="M8.3045 325.529L28.9896 305.666C30.8083 303.847 33.3409 301.496 36.5803 298.617C41.7008 293.945 45.5921 290.187 48.265 287.336C50.9072 284.518 53.0576 281.532 54.7224 278.378C56.3574 275.193 57.1745 271.796 57.1745 268.175C57.1745 262.793 55.619 258.871 52.6501 256.232L52.6444 256.227L52.6388 256.222C49.6473 253.48 45.2024 252.03 39.1395 252.03C35.0325 252.03 30.7773 252.772 26.3693 254.271C22.0661 255.764 18.0213 257.961 14.2333 260.868L12.6245 262.103V246.335L13.0369 246.036C20.7948 240.402 30.2345 237.61 41.2995 237.61C51.1978 237.61 59.0351 240.271 64.6715 245.718C70.3066 251.073 73.0795 258.376 73.0795 267.5C73.0795 271.968 72.1015 276.252 70.1511 280.342C68.306 284.399 65.6866 288.39 62.3075 292.317L62.2999 292.326C58.9461 296.133 54.4261 300.788 48.7476 306.286C48.7468 306.287 48.746 306.288 48.7451 306.288L32.1423 322.525H76.5895V336H8.3045V325.529ZM29.6895 323.525L48.0495 305.57C53.7195 300.08 58.2195 295.445 61.5495 291.665C64.8795 287.795 67.4445 283.88 69.2445 279.92C71.1345 275.96 72.0795 271.82 72.0795 267.5C72.0795 258.59 69.3795 251.57 63.9795 246.44C58.5795 241.22 51.0195 238.61 41.2995 238.61C30.4095 238.61 21.1845 241.355 13.6245 246.845V260.075C13.9559 259.821 14.2892 259.572 14.6245 259.328C18.2054 256.725 22.0121 254.724 26.0445 253.325C30.5445 251.795 34.9095 251.03 39.1395 251.03C45.3495 251.03 50.0745 252.515 53.3145 255.485C56.5545 258.365 58.1745 262.595 58.1745 268.175C58.1745 271.955 57.3195 275.51 55.6095 278.84C53.8995 282.08 51.6945 285.14 48.9945 288.02C46.2945 290.9 42.3795 294.68 37.2495 299.36C34.0095 302.24 31.4895 304.58 29.6895 306.38L9.3045 325.955V335H75.5895V323.525H29.6895ZM139.167 331.917L139.161 331.913C133.131 327.831 128.517 322 125.302 314.468C122.088 306.936 120.497 298.067 120.497 287.885C120.497 277.707 122.042 268.841 125.163 261.312L125.165 261.306C128.379 253.685 132.993 247.806 139.026 243.722L139.032 243.718C145.16 239.633 152.424 237.61 160.782 237.61C169.138 237.61 176.36 239.632 182.4 243.72C188.524 247.804 193.14 253.684 196.264 261.309C199.477 268.839 201.067 277.706 201.067 287.885C201.067 298.067 199.476 306.936 196.262 314.468C193.045 322.003 188.384 327.835 182.264 331.916C176.226 336.002 169.05 338.025 160.782 338.025C152.512 338.025 145.293 336.001 139.167 331.917ZM181.707 331.085C187.647 327.125 192.192 321.455 195.342 314.075C198.492 306.695 200.067 297.965 200.067 287.885C200.067 277.805 198.492 269.075 195.342 261.695C192.282 254.225 187.782 248.51 181.842 244.55C175.992 240.59 168.972 238.61 160.782 238.61C152.592 238.61 145.527 240.59 139.587 244.55C133.737 248.51 129.237 254.225 126.087 261.695C123.027 269.075 121.497 277.805 121.497 287.885C121.497 297.965 123.072 306.695 126.222 314.075C129.372 321.455 133.872 327.125 139.722 331.085C145.662 335.045 152.682 337.025 160.782 337.025C168.882 337.025 175.857 335.045 181.707 331.085ZM178.722 314.455L178.723 314.453C183.161 308.014 185.432 299.236 185.432 288.02C185.432 276.801 183.204 268.019 178.853 261.58C174.541 255.198 168.553 252.03 160.782 252.03C153.011 252.03 147.023 255.198 142.71 261.58C138.359 268.019 136.132 276.801 136.132 288.02C136.132 299.236 138.358 308.015 142.706 314.454C147.109 320.752 153.101 323.875 160.782 323.875C168.464 323.875 174.41 320.751 178.722 314.455ZM141.882 315.02C137.382 308.36 135.132 299.36 135.132 288.02C135.132 276.68 137.382 267.68 141.882 261.02C146.382 254.36 152.682 251.03 160.782 251.03C168.882 251.03 175.182 254.36 179.682 261.02C184.182 267.68 186.432 276.68 186.432 288.02C186.432 299.36 184.137 308.36 179.547 315.02C175.047 321.59 168.792 324.875 160.782 324.875C152.772 324.875 146.472 321.59 141.882 315.02ZM244.95 325.529L265.628 305.673C265.63 305.67 265.633 305.668 265.635 305.665C267.454 303.847 269.986 301.497 273.225 298.617C278.346 293.946 282.237 290.187 284.91 287.336C287.553 284.517 289.704 281.53 291.369 278.377C293.003 275.191 293.82 271.795 293.82 268.175C293.82 262.793 292.264 258.871 289.296 256.232L289.29 256.227L289.284 256.222C286.293 253.48 281.848 252.03 275.785 252.03C271.678 252.03 267.423 252.772 263.014 254.271C258.711 255.764 254.667 257.961 250.879 260.868L249.27 262.103V246.335L249.682 246.036C257.44 240.402 266.88 237.61 277.945 237.61C287.844 237.61 295.681 240.272 301.318 245.719C306.952 251.074 309.725 258.376 309.725 267.5C309.725 271.968 308.747 276.252 306.797 280.341C304.952 284.399 302.332 288.39 298.953 292.317L298.945 292.326C295.591 296.134 291.07 300.789 285.391 306.288L268.788 322.525H313.235V336H244.95V325.529ZM266.335 323.525L284.695 305.57C290.365 300.08 294.865 295.445 298.195 291.665C301.525 287.795 304.09 283.88 305.89 279.92C307.78 275.96 308.725 271.82 308.725 267.5C308.725 258.59 306.025 251.57 300.625 246.44C295.225 241.22 287.665 238.61 277.945 238.61C267.055 238.61 257.83 241.355 250.27 246.845V260.075C250.601 259.821 250.935 259.572 251.27 259.328C254.851 256.725 258.658 254.724 262.69 253.325C267.19 251.795 271.555 251.03 275.785 251.03C281.995 251.03 286.72 252.515 289.96 255.485C293.2 258.365 294.82 262.595 294.82 268.175C294.82 271.955 293.965 275.51 292.255 278.84C290.545 282.08 288.34 285.14 285.64 288.02C282.94 290.9 279.025 294.68 273.895 299.36C270.655 302.24 268.135 304.58 266.335 306.38L245.95 325.955V335H312.235V323.525H266.335ZM375.813 331.917L375.807 331.913C369.777 327.831 365.163 322 361.948 314.468C358.733 306.936 357.142 298.067 357.142 287.885C357.142 277.707 358.687 268.841 361.809 261.312L361.811 261.306C365.025 253.685 369.639 247.806 375.672 243.722L375.678 243.718C381.805 239.633 389.07 237.61 397.427 237.61C405.783 237.61 413.005 239.632 419.045 243.72C425.169 247.803 429.785 253.684 432.91 261.309C436.123 268.839 437.712 277.706 437.712 287.885C437.712 298.067 436.122 306.936 432.907 314.468C429.691 322.002 425.031 327.833 418.911 331.914C412.873 336.001 405.696 338.025 397.427 338.025C389.157 338.025 381.938 336.001 375.813 331.917ZM418.352 331.085C424.292 327.125 428.837 321.455 431.987 314.075C435.137 306.695 436.712 297.965 436.712 287.885C436.712 277.805 435.137 269.075 431.987 261.695C428.927 254.225 424.427 248.51 418.487 244.55C412.637 240.59 405.617 238.61 397.427 238.61C389.237 238.61 382.172 240.59 376.232 244.55C370.382 248.51 365.882 254.225 362.732 261.695C359.672 269.075 358.142 277.805 358.142 287.885C358.142 297.965 359.717 306.695 362.867 314.075C366.017 321.455 370.517 327.125 376.367 331.085C382.307 335.045 389.327 337.025 397.427 337.025C405.527 337.025 412.502 335.045 418.352 331.085ZM415.367 314.455L415.369 314.453C419.806 308.014 422.077 299.236 422.077 288.02C422.077 276.801 419.85 268.019 415.499 261.58C411.186 255.198 405.198 252.03 397.427 252.03C389.656 252.03 383.668 255.198 379.356 261.58C375.005 268.019 372.777 276.801 372.777 288.02C372.777 299.236 375.004 308.015 379.352 314.454C383.755 320.752 389.747 323.875 397.427 323.875C405.11 323.875 411.055 320.751 415.367 314.455ZM378.527 315.02C374.027 308.36 371.777 299.36 371.777 288.02C371.777 276.68 374.027 267.68 378.527 261.02C383.027 254.36 389.327 251.03 397.427 251.03C405.527 251.03 411.827 254.36 416.327 261.02C420.827 267.68 423.077 276.68 423.077 288.02C423.077 299.36 420.782 308.36 416.192 315.02C411.692 321.59 405.437 324.875 397.427 324.875C389.417 324.875 383.117 321.59 378.527 315.02Z" fill="#BB6BD9"/>
<path d="M374.251 165H435.5V195.5H374.251V221.529H339V118H374.251H435.5V148.5H374.251V165Z" fill="#BB6BD9"/>
<path d="M339 118H374.25V148.5H339V118Z" fill="#9B45BB"/>
<path d="M339 165H374.25V195.5H339V165Z" fill="#9B45BB"/>
<path d="M261.593 178.303C261.596 163.212 268.169 157.064 276.753 157.064L276.76 157.064C285.345 157.064 292.409 163.212 292.409 178.303C292.409 193.394 292.409 222 292.409 222L329 222L329 178.303C328.901 138.274 307.688 119.715 280.775 118.061C279.449 117.98 274.309 117.98 272.982 118.061C246.135 119.711 225 138.48 225 178.303L225 222L261.593 222L261.593 178.303Z" fill="#BB6BD9"/>
<path d="M292.342 221.714L328.899 221.714L328.899 192L292.342 192L292.342 221.714ZM225.003 221.714L261.557 221.714L261.557 192L225 192L225.003 221.714Z" fill="#9B45BB"/>
<path d="M180.518 169.235C180.515 182.44 174.322 187.819 166.232 187.819H166.226C158.136 187.819 151.48 182.44 151.48 169.235C151.48 156.031 151.48 131 151.48 131L117 169.235C117.093 204.26 137.082 220.5 162.443 221.946C163.692 222.018 168.535 222.018 169.786 221.946C195.084 220.503 215 204.08 215 169.235L180.518 131V169.235Z" fill="#9B45BB"/>
<path d="M151.482 170.765C151.485 157.561 157.678 152.181 165.768 152.181H165.774C173.864 152.181 180.52 157.561 180.52 170.765C180.52 183.97 180.52 209 180.52 209C180.52 209 215.093 205.79 215 170.765C214.906 135.74 194.918 119.5 169.557 118.054C168.307 117.982 163.465 117.982 162.214 118.054C136.916 119.497 117 135.92 117 170.765L151.482 209V170.765Z" fill="#9B45BB"/>
<path d="M66.6641 185.407C52.7341 185.404 47.0589 178.832 47.0589 170.247L47.0589 170.24C47.0589 161.655 52.7341 154.591 66.6641 154.591C80.5942 154.591 107 154.591 107 154.591L107 118L66.6642 118C29.7145 118.099 12.5826 139.312 11.0565 166.225C10.9812 167.551 10.9812 172.691 11.0565 174.018C12.5795 200.865 29.9044 222 66.6641 222L107 222L107 185.407L66.6641 185.407Z" fill="#BB6BD9"/>
<path d="M107.714 154.658L107.714 118.101L78 118.101L78 154.658L107.714 154.658ZM107.714 221.997L107.714 185.443L78 185.443L78 222L107.714 221.997Z" fill="#9B45BB"/>
<g clip-path="url(#clip0)">
<path d="M286.457 3H240V106.529H275.251V82.4958H286.457C318.248 82.4958 331.97 65.3099 331.97 42.7479C331.971 20.1868 318.248 3 286.457 3ZM286.457 52.916H275.251V32.5798H286.457C292.175 32.5798 297.664 36.5084 297.664 42.7479C297.664 48.9874 292.175 52.916 286.457 52.916ZM404.196 3V40.8992H375.438V3H340.187V106.529H375.438V70.479H404.196V106.529H439.447V3H404.196Z" fill="#00B6E0"/>
<path d="M340.319 70.6865H375.57V41.1067H340.319V70.6865ZM404.328 41.1067V70.6865H439.579V41.1067H404.328ZM240.132 82.7033H275.383V53.1235H240.132V82.7033ZM240.132 32.7873H275.383V3.20752H240.132V32.7873Z" fill="#007BBF"/>
<path d="M230.855 3.20752H195.604L175.891 22.7284L156.179 3.20752H120.464V32.7874L142.867 54.9722L120.464 77.1571V106.737H156.179L175.891 87.2161L195.604 106.737H230.855V77.1571L208.452 54.9722L230.855 32.7874V3.20752ZM75.9362 56.821C75.9334 69.3 69.6021 74.384 61.332 74.384H61.3255C53.0554 74.384 46.251 69.3 46.251 56.821C46.251 44.342 46.251 3.20752 46.251 3.20752H11L11.0018 56.821C11.0974 89.9217 31.5319 105.269 57.4581 106.636C58.7355 106.704 63.6864 106.704 64.9647 106.636C90.827 105.272 111.187 89.7517 111.187 56.821V3.20752H75.9362V56.821Z" fill="#FF422E"/>
<path d="M195.604 3.20752L195.607 32.7874H230.855V3.20752H195.604ZM120.467 32.7874H155.715V3.20752H120.464L120.467 32.7874ZM195.607 106.737H230.855V77.1571H195.604L195.607 106.737ZM120.467 106.737H154.787V77.1571H120.464L120.467 106.737ZM75.9362 32.7874H111.187V3.20752H75.9362V32.7874ZM11.0028 32.7874H46.251V3.20752H11L11.0028 32.7874Z" fill="#CE0000"/>
</g>
<defs>
<clipPath id="clip0">
<rect width="436" height="110" fill="white"/>
</clipPath>
</defs>
</svg>
