<svg width="581" height="503" viewBox="0 0 581 503" fill="none" xmlns="http://www.w3.org/2000/svg">
<g clip-path="url(#clip0)">
<path d="M372.934 44.6865H315.813V171.871H359.176V142.379H372.934C411.996 142.379 428.825 121.243 428.825 93.5943C428.825 65.8225 411.874 44.6865 372.934 44.6865ZM372.934 106.006H359.176V81.0601H372.934C379.935 81.0601 386.692 85.8526 386.692 93.5943C386.692 101.336 379.935 106.006 372.934 106.006ZM517.515 44.6865V91.2595H482.137V44.6865H438.775V171.871H482.137V127.633H517.515V171.994H560.877V44.6865H517.515Z" fill="#00B6E0"/>
<path d="M439.021 127.879H482.383V91.5052H439.021V127.879ZM517.638 91.5052V127.879H561V91.5052H517.638ZM315.936 142.625H359.298V106.251H315.936V142.625V142.625ZM315.936 81.3059H359.298V44.9323H315.936V81.3059V81.3059Z" fill="#007BBF"/>
<path d="M304.635 44.9323H261.273L237.074 68.8946L212.874 44.9323H169.021V81.3059L196.537 108.586L169.021 135.866V172.24H212.874L237.074 148.278L261.273 172.24H304.635V135.866L277.119 108.586L304.635 81.3059V44.9323ZM114.235 110.798C114.235 126.158 106.496 132.426 96.3002 132.426C86.1046 132.426 77.7516 126.158 77.7516 110.798C77.7516 95.4375 77.7516 44.9323 77.7516 44.9323H34.5123V110.798C34.6351 151.473 59.6942 170.274 91.6324 171.994C93.2293 172.117 99.2484 172.117 100.845 171.994C132.661 170.274 157.597 151.227 157.597 110.798V44.9323H114.235V110.798Z" fill="#FF422E"/>
<path d="M261.273 44.9323V81.3059H304.512V44.9323H261.273ZM169.021 81.3059H212.26V44.9323H168.898L169.021 81.3059ZM261.273 172.117H304.512V135.866H261.15L261.273 172.117ZM169.021 172.117H211.155V135.866H169.021V172.117ZM114.235 81.3059H157.597V44.9323H114.235V81.3059ZM34.5123 81.3059H77.7516V44.9323H34.5123V81.3059Z" fill="#CE0000"/>
<path d="M487.542 238.843H549.453V272.636H487.542V313.311H444.303V186.126H487.542H555.349V223.605H487.542V238.843Z" fill="#BB6BD9"/>
<path d="M487.542 186.126H444.303V223.605H487.542V186.126Z" fill="#9B45BB"/>
<path d="M487.542 238.966H444.303V272.759H487.542V238.966Z" fill="#9B45BB"/>
<path d="M390.868 313.311H428.948V185.88H390.868V313.311ZM313.111 313.311H353.156V185.88H313.111V313.311Z" fill="#9B45BB"/>
<path d="M353.279 186.003L428.948 296.598L390.868 313.311L312.988 201.855" fill="#BB6BD9"/>
<path d="M390.868 240.932L428.948 296.599V313.311H390.868V240.932Z" fill="#BB6BD9"/>
<path d="M312.988 186.003H353.156V259.733L312.988 201.855V186.003Z" fill="#9B45BB"/>
<path d="M238.916 276.2C237.442 276.445 235.968 276.568 234.494 276.568C228.229 276.568 221.719 274.602 216.682 270.301C211.155 265.632 207.347 258.382 207.347 248.182C207.347 232.207 216.682 223.36 227.247 220.656L209.681 185.88C185.358 194.974 167.792 217.461 167.792 248.428C167.792 268.827 175.531 285.662 187.815 297.213C199.976 308.641 216.56 315.154 234.494 315.154C235.968 315.154 237.442 315.154 238.916 315.031C250.34 314.294 261.027 310.976 270.24 305.446L252.306 270.178C248.498 273.496 243.707 275.462 238.916 276.2Z" fill="#BB6BD9"/>
<path d="M301.073 248.428C301.073 241.915 300.336 235.771 298.862 230.118C296.405 220.656 292.106 212.3 286.455 205.296C282.893 200.995 278.962 197.185 274.417 193.99C264.344 186.74 252.06 182.439 238.793 181.579C237.319 181.456 235.845 181.456 234.371 181.456C225.65 181.456 217.297 183.054 209.558 185.88L227.124 220.656C229.458 220.042 231.914 219.796 234.371 219.796C235.845 219.796 237.319 219.919 238.793 220.165C243.093 220.902 247.392 222.499 251.077 225.326C253.534 227.169 255.745 229.504 257.342 232.453C257.956 233.559 258.57 234.665 259.062 235.894C260.536 239.457 261.273 243.513 261.273 248.305C261.273 258.382 257.465 265.632 252.183 270.178L270.117 305.446C288.666 294.387 301.073 274.356 301.073 248.428Z" fill="#9B45BB"/>
<path d="M161.651 224.834C156.86 206.77 139.908 183.545 102.811 183.545C67.8016 183.545 38.0746 209.597 37.0919 248.182C37.0919 248.551 37.0919 248.919 37.0919 249.288C37.0919 249.411 37.0919 249.657 37.0919 249.78C37.0919 249.903 37.0919 250.148 37.0919 250.271C37.0919 257.03 38.0746 263.42 39.7943 269.318L78.6115 266.492C76.1547 261.822 74.5578 256.293 74.5578 249.78C74.5578 249.288 74.5578 248.674 74.5578 248.182C75.4176 228.767 90.0355 217.461 102.811 217.461C118.411 217.461 127.133 228.152 129.835 235.156C130.081 235.894 130.327 236.631 130.449 237.246L145.559 232.084L162.019 226.432C162.019 225.94 161.773 225.449 161.651 224.834Z" fill="#BB6BD9"/>
<path d="M99.4941 316.014C100.6 316.014 101.705 316.137 102.688 316.137C141.014 316.137 157.843 291.56 162.019 273.128L129.59 265.017C126.641 272.022 118.043 282.098 102.811 282.098C101.705 282.098 100.6 281.975 99.4941 281.852C91.5095 280.624 83.2793 275.34 78.6114 266.492L39.7943 269.318C47.656 296.844 71.6096 314.662 99.4941 316.014Z" fill="#9B45BB"/>
<path d="M84.9991 381.265C84.3849 379.668 83.7707 374.507 83.7707 370.574C83.7707 347.472 101.091 326.828 132.169 326.828C161.896 326.828 180.199 346.121 180.199 369.1C180.199 385.812 171.232 399.452 154.649 409.283L130.204 423.783C126.396 426.118 123.202 428.698 121.482 432.508H181.305V458.805H83.0337C83.0337 435.211 89.7898 415.673 113.498 402.033L134.626 389.744C144.822 383.723 148.752 378.439 148.752 369.837C148.752 361.727 142.979 354.599 131.432 354.599C119.271 354.599 113.252 362.956 113.252 373.647C113.252 376.227 113.621 379.053 114.48 381.634L84.9991 381.265Z" fill="#BB6BD9"/>
<path d="M198.748 348.947C207.347 336.044 221.596 326.951 242.601 326.951C263.73 326.951 278.102 336.044 286.578 348.947C295.545 362.464 297.879 378.562 297.879 394.414C297.879 410.266 295.545 426.364 286.578 439.881C277.979 452.538 263.73 461.877 242.601 461.877C221.719 461.877 207.347 452.538 198.748 439.881C189.781 426.364 187.447 410.266 187.447 394.414C187.447 378.562 189.781 362.464 198.748 348.947ZM223.561 422.431C227.124 429.559 232.897 434.351 242.479 434.351C252.183 434.351 257.834 429.559 261.396 422.431C265.204 414.936 266.432 404.736 266.432 394.414C266.432 384.092 265.204 373.892 261.396 366.396C257.834 359.269 252.183 354.477 242.479 354.477C232.897 354.477 227.124 359.269 223.561 366.396C219.999 373.892 218.771 384.092 218.771 394.414C218.771 404.736 219.999 414.813 223.561 422.431Z" fill="#BB6BD9"/>
<path d="M305.986 381.265C305.372 379.668 304.758 374.507 304.758 370.574C304.758 347.472 322.078 326.828 353.157 326.828C382.884 326.828 401.187 346.121 401.187 369.1C401.187 385.812 392.219 399.452 375.636 409.283L351.191 423.783C347.383 426.118 344.189 428.698 342.47 432.508H402.292V458.805H304.021C304.021 435.211 310.777 415.673 334.485 402.033L355.613 389.744C365.809 383.723 369.74 378.439 369.74 369.837C369.74 361.727 363.966 354.599 352.42 354.599C340.258 354.599 334.239 362.956 334.239 373.647C334.239 376.227 334.608 379.053 335.468 381.634L305.986 381.265Z" fill="#BB6BD9"/>
<path d="M419.735 348.947C428.334 336.044 442.583 326.951 463.589 326.951C484.717 326.951 499.089 336.044 507.565 348.947C516.532 362.464 518.866 378.562 518.866 394.414C518.866 410.266 516.532 426.364 507.565 439.881C498.966 452.538 484.717 461.877 463.589 461.877C442.706 461.877 428.334 452.538 419.735 439.881C410.768 426.364 408.434 410.266 408.434 394.414C408.434 378.562 410.768 362.464 419.735 348.947ZM444.549 422.431C448.111 429.559 453.885 434.351 463.466 434.351C473.17 434.351 478.821 429.559 482.383 422.431C486.191 414.936 487.42 404.736 487.42 394.414C487.42 384.092 486.191 373.892 482.383 366.396C478.821 359.269 473.17 354.477 463.466 354.477C453.885 354.477 448.111 359.269 444.549 366.396C440.986 373.892 439.758 384.092 439.758 394.414C439.758 404.736 440.986 414.813 444.549 422.431Z" fill="#BB6BD9"/>
</g>
<defs>
<clipPath id="clip0">
<rect width="540" height="421" fill="white" transform="translate(21 41)"/>
</clipPath>
</defs>
</svg>
