<svg width="21" height="20" viewBox="0 0 21 20" fill="none" xmlns="http://www.w3.org/2000/svg">
<g clip-path="url(#clip0)">
<path d="M18.0528 0.493896H2.96706C2.42147 0.493896 1.89822 0.710631 1.51244 1.09642C1.12665 1.48221 0.909912 2.00545 0.909912 2.55104L0.909912 17.6368C0.909912 18.1823 1.12665 18.7056 1.51244 19.0914C1.89822 19.4772 2.42147 19.6939 2.96706 19.6939H8.8492V13.1663H6.1492V10.0939H8.8492V7.75218C8.8492 5.08861 10.4349 3.61733 12.8636 3.61733C14.0268 3.61733 15.2431 3.82475 15.2431 3.82475V6.43904H13.9029C12.5825 6.43904 12.1706 7.25847 12.1706 8.0989V10.0939H15.1183L14.6469 13.1663H12.1706V19.6939H18.0528C18.5984 19.6939 19.1216 19.4772 19.5074 19.0914C19.8932 18.7056 20.1099 18.1823 20.1099 17.6368V2.55104C20.1099 2.00545 19.8932 1.48221 19.5074 1.09642C19.1216 0.710631 18.5984 0.493896 18.0528 0.493896Z" fill="white"/>
</g>
<defs>
<clipPath id="clip0">
<rect width="20" height="20" fill="white" transform="translate(0.727295)"/>
</clipPath>
</defs>
</svg>
