<svg width="21" height="20" viewBox="0 0 21 20" fill="none" xmlns="http://www.w3.org/2000/svg">
<path d="M10.7295 4.87225C7.89182 4.87225 5.60292 7.16166 5.60292 10C5.60292 12.8383 7.89182 15.1277 10.7295 15.1277C13.5672 15.1277 15.8561 12.8383 15.8561 10C15.8561 7.16166 13.5672 4.87225 10.7295 4.87225ZM10.7295 13.3337C8.89573 13.3337 7.39656 11.8387 7.39656 10C7.39656 8.16133 8.89127 6.6663 10.7295 6.6663C12.5678 6.6663 14.0625 8.16133 14.0625 10C14.0625 11.8387 12.5633 13.3337 10.7295 13.3337ZM17.2616 4.6625C17.2616 5.32746 16.7262 5.85853 16.0658 5.85853C15.401 5.85853 14.8701 5.32299 14.8701 4.6625C14.8701 4.00201 15.4055 3.46647 16.0658 3.46647C16.7262 3.46647 17.2616 4.00201 17.2616 4.6625ZM20.657 5.87638C20.5812 4.27424 20.2153 2.85507 19.0419 1.68582C17.8729 0.516568 16.454 0.150619 14.8522 0.070289C13.2014 -0.0234297 8.25323 -0.0234297 6.60236 0.070289C5.00504 0.146156 3.58619 0.512105 2.41274 1.68136C1.23929 2.85061 0.877881 4.26978 0.797568 5.87192C0.70387 7.52315 0.70387 12.4724 0.797568 14.1236C0.873419 15.7258 1.23929 17.1449 2.41274 18.3142C3.58619 19.4834 5.00058 19.8494 6.60236 19.9297C8.25323 20.0234 13.2014 20.0234 14.8522 19.9297C16.454 19.8538 17.8729 19.4879 19.0419 18.3142C20.2108 17.1449 20.5767 15.7258 20.657 14.1236C20.7507 12.4724 20.7507 7.52761 20.657 5.87638ZM18.5243 15.8953C18.1763 16.7701 17.5025 17.4439 16.6236 17.7965C15.3073 18.3186 12.1841 18.1981 10.7295 18.1981C9.27498 18.1981 6.14726 18.3142 4.83549 17.7965C3.96098 17.4484 3.28725 16.7745 2.93477 15.8953C2.41274 14.5788 2.53321 11.4549 2.53321 10C2.53321 8.54513 2.4172 5.41671 2.93477 4.10465C3.28279 3.22995 3.95652 2.55606 4.83549 2.2035C6.15172 1.68136 9.27498 1.80185 10.7295 1.80185C12.1841 1.80185 15.3118 1.68582 16.6236 2.2035C17.4981 2.5516 18.1718 3.22548 18.5243 4.10465C19.0463 5.42118 18.9258 8.54513 18.9258 10C18.9258 11.4549 19.0463 14.5833 18.5243 15.8953Z" fill="white"/>
</svg>
