<svg width="21" height="20" viewBox="0 0 21 20" fill="none" xmlns="http://www.w3.org/2000/svg">
<g clip-path="url(#clip0)">
<path d="M19.2987 0H2.1514C1.36569 0 0.727295 0.647322 0.727295 1.44196V18.558C0.727295 19.3527 1.36569 20 2.1514 20H19.2987C20.0844 20 20.7273 19.3527 20.7273 18.558V1.44196C20.7273 0.647322 20.0844 0 19.2987 0ZM6.77194 17.1429H3.80765V7.59821H6.7764V17.1429H6.77194ZM5.28979 6.29464C4.3389 6.29464 3.57104 5.52232 3.57104 4.57589C3.57104 3.62946 4.3389 2.85714 5.28979 2.85714C6.23622 2.85714 7.00854 3.62946 7.00854 4.57589C7.00854 5.52679 6.24069 6.29464 5.28979 6.29464ZM17.8835 17.1429H14.9193V12.5C14.9193 11.3929 14.8969 9.96875 13.3791 9.96875C11.8344 9.96875 11.5978 11.1741 11.5978 12.4196V17.1429H8.63355V7.59821H11.4773V8.90179H11.5175C11.9148 8.15179 12.8835 7.36161 14.3255 7.36161C17.3255 7.36161 17.8835 9.33929 17.8835 11.9107V17.1429Z" fill="white"/>
</g>
<defs>
<clipPath id="clip0">
<rect width="20" height="20" fill="white" transform="translate(0.727295)"/>
</clipPath>
</defs>
</svg>
