<svg width="23" height="20" viewBox="0 0 23 20" fill="none" xmlns="http://www.w3.org/2000/svg">
<g clip-path="url(#clip0)">
<path d="M19.9627 5.38353C19.9766 5.59232 19.9766 5.80117 19.9766 6.00996C19.9766 12.3785 15.4773 19.7166 7.25387 19.7166C4.72039 19.7166 2.36692 18.9261 0.387207 17.554C0.747166 17.5987 1.09323 17.6137 1.46704 17.6137C3.55746 17.6137 5.48182 16.853 7.01851 15.5554C5.05265 15.5107 3.4052 14.1236 2.83759 12.2145C3.11449 12.2592 3.39135 12.2891 3.68211 12.2891C4.08357 12.2891 4.48508 12.2294 4.85884 12.125C2.80993 11.6775 1.27319 9.73865 1.27319 7.39703V7.33739C1.86846 7.69535 2.56072 7.91907 3.29441 7.94886C2.08997 7.08379 1.30089 5.60724 1.30089 3.93678C1.30089 3.04191 1.52235 2.2216 1.91001 1.50568C4.11123 4.42898 7.41998 6.33803 11.1301 6.54688C11.0609 6.18892 11.0194 5.81609 11.0194 5.44321C11.0194 2.78835 13.013 0.625732 15.491 0.625732C16.7785 0.625732 17.9414 1.20741 18.7582 2.14704C19.7688 1.93824 20.7379 1.53552 21.5963 0.98369C21.264 2.10232 20.5579 3.04195 19.6304 3.6385C20.5303 3.53415 21.4025 3.26563 22.2054 2.89279C21.5964 3.8473 20.8349 4.69741 19.9627 5.38353Z" fill="white"/>
</g>
<defs>
<clipPath id="clip0">
<rect width="22.7273" height="20" fill="white"/>
</clipPath>
</defs>
</svg>
